<?xml version="1.0" encoding="UTF-8" standalone="no"?>
<!DOCTYPE svg PUBLIC "-//W3C//DTD SVG 1.1//EN"
 "http://www.w3.org/Graphics/SVG/1.1/DTD/svg11.dtd">
<!-- Generated by graphviz version 2.40.1 (20161225.0304)
 -->
<!-- Title: pipeline Pages: 1 -->
<svg width="1023pt" height="2721pt"
 viewBox="0.00 0.00 1023.00 2720.60" xmlns="http://www.w3.org/2000/svg" xmlns:xlink="http://www.w3.org/1999/xlink">
<g id="graph0" class="graph" transform="scale(1 1) rotate(0) translate(4 2716.6)">
<title>pipeline</title>
<polygon fill="#ffffff" stroke="transparent" points="-4,4 -4,-2716.6 1019,-2716.6 1019,4 -4,4"/>
<g id="clust1" class="cluster">
<title>cluster_s1</title>
<path fill="#fbfdff" stroke="#9fb6cc" d="M544,-1978.2C544,-1978.2 780,-1978.2 780,-1978.2 786,-1978.2 792,-1984.2 792,-1990.2 792,-1990.2 792,-2563.8 792,-2563.8 792,-2569.8 786,-2575.8 780,-2575.8 780,-2575.8 544,-2575.8 544,-2575.8 538,-2575.8 532,-2569.8 532,-2563.8 532,-2563.8 532,-1990.2 532,-1990.2 532,-1984.2 538,-1978.2 544,-1978.2"/>
<text text-anchor="middle" x="612.446" y="-2561.9" font-family="Helvetica,sans-Serif" font-weight="bold" font-size="11.00" fill="#000000">Stage 1 &#160;— &#160;locate / download</text>
</g>
<g id="clust2" class="cluster">
<title>cluster_s2</title>
<path fill="#fbfdff" stroke="#9fb6cc" d="M20,-1462.6C20,-1462.6 880,-1462.6 880,-1462.6 886,-1462.6 892,-1468.6 892,-1474.6 892,-1474.6 892,-1939.4 892,-1939.4 892,-1945.4 886,-1951.4 880,-1951.4 880,-1951.4 20,-1951.4 20,-1951.4 14,-1951.4 8,-1945.4 8,-1939.4 8,-1939.4 8,-1474.6 8,-1474.6 8,-1468.6 14,-1462.6 20,-1462.6"/>
<text text-anchor="middle" x="83.8606" y="-1937.5" font-family="Helvetica,sans-Serif" font-weight="bold" font-size="11.00" fill="#000000">Stage 2 &#160;— &#160;parse metadata</text>
</g>
<g id="clust3" class="cluster">
<title>cluster_s3</title>
<path fill="#fbfdff" stroke="#9fb6cc" d="M705,-127C705,-127 995,-127 995,-127 1001,-127 1007,-133 1007,-139 1007,-139 1007,-1433.6 1007,-1433.6 1007,-1439.6 1001,-1445.6 995,-1445.6 995,-1445.6 705,-1445.6 705,-1445.6 699,-1445.6 693,-1439.6 693,-1433.6 693,-1433.6 693,-139 693,-139 693,-133 699,-127 705,-127"/>
<text text-anchor="middle" x="763.9618" y="-1431.7" font-family="Helvetica,sans-Serif" font-weight="bold" font-size="11.00" fill="#000000">Stage 3 &#160;— &#160;build DuckDB</text>
</g>
<!-- A -->
<g id="node1" class="node">
<title>A</title>
<path fill="#d9ead3" stroke="#5b7da3" d="M568.7432,-2712.6C568.7432,-2712.6 443.2568,-2712.6 443.2568,-2712.6 437.2568,-2712.6 431.2568,-2706.6 431.2568,-2700.6 431.2568,-2700.6 431.2568,-2688.6 431.2568,-2688.6 431.2568,-2682.6 437.2568,-2676.6 443.2568,-2676.6 443.2568,-2676.6 568.7432,-2676.6 568.7432,-2676.6 574.7432,-2676.6 580.7432,-2682.6 580.7432,-2688.6 580.7432,-2688.6 580.7432,-2700.6 580.7432,-2700.6 580.7432,-2706.6 574.7432,-2712.6 568.7432,-2712.6"/>
<text text-anchor="middle" x="506" y="-2691.6" font-family="Helvetica,sans-Serif" font-size="10.00" fill="#000000">get_pumf(series, version, lang)</text>
</g>
<!-- LFS -->
<g id="node2" class="node">
<title>LFS</title>
<polygon fill="#fce8b2" stroke="#5b7da3" points="506,-2645.6 438.2761,-2627.6 506,-2609.6 573.7239,-2627.6 506,-2645.6"/>
<text text-anchor="middle" x="506" y="-2624.6" font-family="Helvetica,sans-Serif" font-size="10.00" fill="#000000">series == LFS?</text>
</g>
<!-- A&#45;&gt;LFS -->
<g id="edge1" class="edge">
<title>A&#45;&gt;LFS</title>
<path fill="none" stroke="#666666" d="M506,-2676.292C506,-2669.2016 506,-2660.9593 506,-2653.2944"/>
<polygon fill="#666666" stroke="#666666" points="508.4501,-2652.8859 506,-2645.8859 503.5501,-2652.8859 508.4501,-2652.8859"/>
</g>
<!-- LFSP -->
<g id="node3" class="node">
<title>LFSP</title>
<path fill="#d9ead3" stroke="#5b7da3" d="M511.8971,-2546.6C511.8971,-2546.6 460.1029,-2546.6 460.1029,-2546.6 454.1029,-2546.6 448.1029,-2540.6 448.1029,-2534.6 448.1029,-2534.6 448.1029,-2522.6 448.1029,-2522.6 448.1029,-2516.6 454.1029,-2510.6 460.1029,-2510.6 460.1029,-2510.6 511.8971,-2510.6 511.8971,-2510.6 517.8971,-2510.6 523.8971,-2516.6 523.8971,-2522.6 523.8971,-2522.6 523.8971,-2534.6 523.8971,-2534.6 523.8971,-2540.6 517.8971,-2546.6 511.8971,-2546.6"/>
<text text-anchor="middle" x="486" y="-2525.6" font-family="Helvetica,sans-Serif" font-size="10.00" fill="#000000">lfs_get_pumf()</text>
</g>
<!-- LFS&#45;&gt;LFSP -->
<g id="edge2" class="edge">
<title>LFS&#45;&gt;LFSP</title>
<path fill="none" stroke="#666666" d="M502.5163,-2610.3555C499.363,-2594.7469 494.6787,-2571.5595 491.1032,-2553.8611"/>
<polygon fill="#666666" stroke="#666666" points="493.4342,-2553.0264 489.6465,-2546.6502 488.6312,-2553.9968 493.4342,-2553.0264"/>
<text text-anchor="middle" x="505.0016" y="-2586.5" font-family="Helvetica,sans-Serif" font-size="9.00" fill="#000000">yes</text>
</g>
<!-- CHK -->
<g id="node4" class="node">
<title>CHK</title>
<polygon fill="#fce8b2" stroke="#5b7da3" points="634,-2546.6 555.5117,-2528.6 634,-2510.6 712.4883,-2528.6 634,-2546.6"/>
<text text-anchor="middle" x="634" y="-2525.6" font-family="Helvetica,sans-Serif" font-size="10.00" fill="#000000">version dir exists?</text>
</g>
<!-- LFS&#45;&gt;CHK -->
<g id="edge3" class="edge">
<title>LFS&#45;&gt;CHK</title>
<path fill="none" stroke="#666666" d="M523.5295,-2614.0421C535.0441,-2605.1362 550.913,-2592.8626 567.0334,-2580.3945"/>
<polygon fill="#666666" stroke="#666666" points="568.9381,-2582.0186 572.9763,-2575.798 565.9403,-2578.1427 568.9381,-2582.0186"/>
<text text-anchor="middle" x="567.0031" y="-2586.5" font-family="Helvetica,sans-Serif" font-size="9.00" fill="#000000">no</text>
</g>
<!-- COL -->
<g id="node5" class="node">
<title>COL</title>
<polygon fill="#eef3f8" stroke="#5b7da3" points="689.962,-2437.8 578.038,-2437.8 578.038,-2401.8 689.962,-2401.8 689.962,-2437.8"/>
<text text-anchor="middle" x="634" y="-2416.8" font-family="Helvetica,sans-Serif" font-size="10.00" fill="#000000">look up collection URL</text>
</g>
<!-- CHK&#45;&gt;COL -->
<g id="edge5" class="edge">
<title>CHK&#45;&gt;COL</title>
<path fill="none" stroke="#666666" d="M634,-2510.1436C634,-2492.2955 634,-2465.1041 634,-2445.2145"/>
<polygon fill="#666666" stroke="#666666" points="636.4501,-2444.9838 634,-2437.9839 631.5501,-2444.9839 636.4501,-2444.9838"/>
<text text-anchor="middle" x="656.7561" y="-2471.5" font-family="Helvetica,sans-Serif" font-size="9.00" fill="#000000">no / refresh</text>
</g>
<!-- EXTR -->
<g id="node10" class="node">
<title>EXTR</title>
<polygon fill="#fce8b2" stroke="#5b7da3" points="691,-2022.2 597.7442,-2004.2 691,-1986.2 784.2558,-2004.2 691,-2022.2"/>
<text text-anchor="middle" x="691" y="-2001.2" font-family="Helvetica,sans-Serif" font-size="10.00" fill="#000000">zip already extracted?</text>
</g>
<!-- CHK&#45;&gt;EXTR -->
<g id="edge4" class="edge">
<title>CHK&#45;&gt;EXTR</title>
<path fill="none" stroke="#666666" d="M674.6513,-2519.7951C697.7089,-2512.1475 722,-2498.3579 722,-2474.2 722,-2474.2 722,-2474.2 722,-2287.3 722,-2253.7915 755.8782,-2259.9024 771,-2230 781.606,-2209.0272 783,-2202.002 783,-2178.5 783,-2178.5 783,-2178.5 783,-2058.6 783,-2037.0846 764.1263,-2023.8992 743.4759,-2015.9118"/>
<polygon fill="#666666" stroke="#666666" points="744.1467,-2013.5497 736.7305,-2013.4971 742.4952,-2018.163 744.1467,-2013.5497"/>
<text text-anchor="middle" x="765.0082" y="-2263.7" font-family="Helvetica,sans-Serif" font-size="9.00" fill="#000000">yes, not refresh</text>
</g>
<!-- EFT -->
<g id="node6" class="node">
<title>EFT</title>
<polygon fill="#fce8b2" stroke="#5b7da3" points="634,-2338.8 584.6606,-2320.8 634,-2302.8 683.3394,-2320.8 634,-2338.8"/>
<text text-anchor="middle" x="634" y="-2317.8" font-family="Helvetica,sans-Serif" font-size="10.00" fill="#000000">EFT&#45;only?</text>
</g>
<!-- COL&#45;&gt;EFT -->
<g id="edge6" class="edge">
<title>COL&#45;&gt;EFT</title>
<path fill="none" stroke="#666666" d="M634,-2401.6419C634,-2386.0119 634,-2363.2997 634,-2345.9259"/>
<polygon fill="#666666" stroke="#666666" points="636.4501,-2345.843 634,-2338.843 631.5501,-2345.843 636.4501,-2345.843"/>
</g>
<!-- ERR -->
<g id="node7" class="node">
<title>ERR</title>
<polygon fill="#f4cccc" stroke="#5b7da3" points="667.528,-2230 540.472,-2230 540.472,-2194 667.528,-2194 667.528,-2230"/>
<text text-anchor="middle" x="604" y="-2209" font-family="Helvetica,sans-Serif" font-size="10.00" fill="#000000">stop: deposit zip manually</text>
</g>
<!-- EFT&#45;&gt;ERR -->
<g id="edge7" class="edge">
<title>EFT&#45;&gt;ERR</title>
<path fill="none" stroke="#666666" d="M629.4436,-2304.2756C624.517,-2286.4083 616.6064,-2257.7193 610.913,-2237.0713"/>
<polygon fill="#666666" stroke="#666666" points="613.2229,-2236.231 609.0002,-2230.1341 608.4991,-2237.5336 613.2229,-2236.231"/>
<text text-anchor="middle" x="626.0015" y="-2263.7" font-family="Helvetica,sans-Serif" font-size="9.00" fill="#000000">yes</text>
</g>
<!-- DL -->
<g id="node8" class="node">
<title>DL</title>
<polygon fill="#eef3f8" stroke="#5b7da3" points="760.3499,-2230 689.6501,-2230 689.6501,-2194 760.3499,-2194 760.3499,-2230"/>
<text text-anchor="middle" x="725" y="-2209" font-family="Helvetica,sans-Serif" font-size="10.00" fill="#000000">download zip</text>
</g>
<!-- EFT&#45;&gt;DL -->
<g id="edge8" class="edge">
<title>EFT&#45;&gt;DL</title>
<path fill="none" stroke="#666666" d="M645.8967,-2306.5763C660.9332,-2288.5986 687.0322,-2257.3945 705.119,-2235.7698"/>
<polygon fill="#666666" stroke="#666666" points="707.1505,-2237.1597 709.7622,-2230.2183 703.3919,-2234.0159 707.1505,-2237.1597"/>
<text text-anchor="middle" x="687.0031" y="-2263.7" font-family="Helvetica,sans-Serif" font-size="9.00" fill="#000000">no</text>
</g>
<!-- UZ -->
<g id="node9" class="node">
<title>UZ</title>
<polygon fill="#eef3f8" stroke="#5b7da3" points="759.8981,-2131 684.1019,-2131 684.1019,-2095 759.8981,-2095 759.8981,-2131"/>
<text text-anchor="middle" x="722" y="-2110" font-family="Helvetica,sans-Serif" font-size="10.00" fill="#000000">robust_unzip()</text>
</g>
<!-- DL&#45;&gt;UZ -->
<g id="edge9" class="edge">
<title>DL&#45;&gt;UZ</title>
<path fill="none" stroke="#666666" d="M724.4498,-2193.8419C723.9761,-2178.2119 723.2879,-2155.4997 722.7614,-2138.1259"/>
<polygon fill="#666666" stroke="#666666" points="725.2078,-2137.9656 722.5468,-2131.043 720.31,-2138.114 725.2078,-2137.9656"/>
</g>
<!-- UZ&#45;&gt;EXTR -->
<g id="edge10" class="edge">
<title>UZ&#45;&gt;EXTR</title>
<path fill="none" stroke="#666666" d="M713.4854,-2094.706C709.5326,-2085.6293 705.0454,-2074.4057 702,-2064 698.6995,-2052.7228 696.1895,-2039.9465 694.4066,-2029.107"/>
<polygon fill="#666666" stroke="#666666" points="696.7902,-2028.4915 693.2876,-2021.9543 691.9491,-2029.2489 696.7902,-2028.4915"/>
</g>
<!-- EXTR&#45;&gt;UZ -->
<g id="edge11" class="edge">
<title>EXTR&#45;&gt;UZ</title>
<path fill="none" stroke="#666666" d="M696.238,-2021.3133C697.7868,-2026.4196 699.4754,-2032.0324 701,-2037.2 706.4695,-2055.7382 707.8601,-2060.3678 713,-2079 713.8038,-2081.9137 714.6332,-2084.9718 715.4483,-2088.0095"/>
<polygon fill="#666666" stroke="#666666" points="713.1365,-2088.8493 717.3055,-2094.983 717.8715,-2087.5882 713.1365,-2088.8493"/>
<text text-anchor="middle" x="713.0031" y="-2055.9" font-family="Helvetica,sans-Serif" font-size="9.00" fill="#000000">no</text>
</g>
<!-- MC -->
<g id="node11" class="node">
<title>MC</title>
<polygon fill="#fce8b2" stroke="#5b7da3" points="691,-1922.2 586.0581,-1904.2 691,-1886.2 795.9419,-1904.2 691,-1922.2"/>
<text text-anchor="middle" x="691" y="-1901.2" font-family="Helvetica,sans-Serif" font-size="10.00" fill="#000000">metadata already exists?</text>
</g>
<!-- EXTR&#45;&gt;MC -->
<g id="edge28" class="edge">
<title>EXTR&#45;&gt;MC</title>
<path fill="none" stroke="#666666" d="M691,-1985.8585C691,-1978.0168 691,-1968.4102 691,-1958.5761"/>
<polygon fill="#666666" stroke="#666666" points="693.4501,-1958.3971 691,-1951.3972 688.5501,-1958.3972 693.4501,-1958.3971"/>
<text text-anchor="middle" x="698.0015" y="-1962.1" font-family="Helvetica,sans-Serif" font-size="9.00" fill="#000000">yes</text>
</g>
<!-- DF -->
<g id="node12" class="node">
<title>DF</title>
<polygon fill="#eef3f8" stroke="#5b7da3" points="609.2863,-1813.4 524.7137,-1813.4 524.7137,-1777.4 609.2863,-1777.4 609.2863,-1813.4"/>
<text text-anchor="middle" x="567" y="-1792.4" font-family="Helvetica,sans-Serif" font-size="10.00" fill="#000000">detect_formats()</text>
</g>
<!-- MC&#45;&gt;DF -->
<g id="edge12" class="edge">
<title>MC&#45;&gt;DF</title>
<path fill="none" stroke="#666666" d="M673.7583,-1889.0718C652.8471,-1870.7239 617.3907,-1839.6138 593.1198,-1818.318"/>
<polygon fill="#666666" stroke="#666666" points="594.6936,-1816.4395 587.816,-1813.6643 591.4618,-1820.1227 594.6936,-1816.4395"/>
<text text-anchor="middle" x="655.7561" y="-1847.1" font-family="Helvetica,sans-Serif" font-size="9.00" fill="#000000">no / refresh</text>
</g>
<!-- TB -->
<g id="node22" class="node">
<title>TB</title>
<polygon fill="#fce8b2" stroke="#5b7da3" points="870,-1416.4 763.7367,-1398.4 870,-1380.4 976.2633,-1398.4 870,-1416.4"/>
<text text-anchor="middle" x="870" y="-1395.4" font-family="Helvetica,sans-Serif" font-size="10.00" fill="#000000">table already in DuckDB?</text>
</g>
<!-- MC&#45;&gt;TB -->
<g id="edge45" class="edge">
<title>MC&#45;&gt;TB</title>
<path fill="none" stroke="#666666" d="M771.3512,-1899.9514C836.652,-1894.222 918,-1880.8527 918,-1849.8 918,-1849.8 918,-1849.8 918,-1488.6 918,-1462.6221 902.2923,-1436.8483 888.8482,-1419.5461"/>
<polygon fill="#666666" stroke="#666666" points="890.697,-1417.9356 884.4016,-1414.0151 886.8781,-1421.0058 890.697,-1417.9356"/>
<text text-anchor="middle" x="949.0082" y="-1655.3" font-family="Helvetica,sans-Serif" font-size="9.00" fill="#000000">yes, not refresh</text>
</g>
<!-- P1 -->
<g id="node13" class="node">
<title>P1</title>
<polygon fill="#eef3f8" stroke="#5b7da3" points="110.2493,-1714.4 15.7507,-1714.4 15.7507,-1678.4 110.2493,-1678.4 110.2493,-1714.4"/>
<text text-anchor="middle" x="63" y="-1693.4" font-family="Helvetica,sans-Serif" font-size="10.00" fill="#000000">LFS codebook.csv</text>
</g>
<!-- DF&#45;&gt;P1 -->
<g id="edge13" class="edge">
<title>DF&#45;&gt;P1</title>
<path fill="none" stroke="#666666" d="M524.5182,-1789.4409C444.7915,-1777.8701 267.5663,-1750.312 121,-1714.4 119.8032,-1714.1067 118.5947,-1713.8028 117.3782,-1713.4896"/>
<polygon fill="#666666" stroke="#666666" points="117.7432,-1711.0511 110.3477,-1711.6072 116.4758,-1715.7844 117.7432,-1711.0511"/>
</g>
<!-- P2 -->
<g id="node14" class="node">
<title>P2</title>
<polygon fill="#eef3f8" stroke="#5b7da3" points="231.7872,-1714.4 132.2128,-1714.4 132.2128,-1678.4 231.7872,-1678.4 231.7872,-1714.4"/>
<text text-anchor="middle" x="182" y="-1693.4" font-family="Helvetica,sans-Serif" font-size="10.00" fill="#000000">CPSS variables.csv</text>
</g>
<!-- DF&#45;&gt;P2 -->
<g id="edge14" class="edge">
<title>DF&#45;&gt;P2</title>
<path fill="none" stroke="#666666" d="M524.6541,-1785.4133C462.6381,-1770.652 343.5568,-1741.7929 243,-1714.4 241.6417,-1714.03 240.2673,-1713.6522 238.882,-1713.2682"/>
<polygon fill="#666666" stroke="#666666" points="239.2876,-1710.8375 231.886,-1711.3057 237.9641,-1715.5554 239.2876,-1710.8375"/>
</g>
<!-- P3 -->
<g id="node15" class="node">
<title>P3</title>
<polygon fill="#eef3f8" stroke="#5b7da3" points="365.7403,-1714.4 254.2597,-1714.4 254.2597,-1678.4 365.7403,-1678.4 365.7403,-1714.4"/>
<text text-anchor="middle" x="310" y="-1693.4" font-family="Helvetica,sans-Serif" font-size="10.00" fill="#000000">SAS cards (.lay + .lbe)</text>
</g>
<!-- DF&#45;&gt;P3 -->
<g id="edge15" class="edge">
<title>DF&#45;&gt;P3</title>
<path fill="none" stroke="#666666" d="M524.5617,-1779.0522C480.4444,-1762.0576 411.2794,-1735.4142 363.4588,-1716.9931"/>
<polygon fill="#666666" stroke="#666666" points="364.2704,-1714.6803 356.8576,-1714.4502 362.509,-1719.2528 364.2704,-1714.6803"/>
</g>
<!-- P4 -->
<g id="node16" class="node">
<title>P4</title>
<polygon fill="#eef3f8" stroke="#5b7da3" points="507.7882,-1714.4 388.2118,-1714.4 388.2118,-1678.4 507.7882,-1678.4 507.7882,-1714.4"/>
<text text-anchor="middle" x="448" y="-1693.4" font-family="Helvetica,sans-Serif" font-size="10.00" fill="#000000">SPSS split (vare/vale/_i)</text>
</g>
<!-- DF&#45;&gt;P4 -->
<g id="edge16" class="edge">
<title>DF&#45;&gt;P4</title>
<path fill="none" stroke="#666666" d="M545.1736,-1777.2419C525.4635,-1760.8444 496.3836,-1736.6519 475.1734,-1719.0064"/>
<polygon fill="#666666" stroke="#666666" points="476.6362,-1717.0364 469.6881,-1714.443 473.5024,-1720.8033 476.6362,-1717.0364"/>
</g>
<!-- P5 -->
<g id="node17" class="node">
<title>P5</title>
<polygon fill="#eef3f8" stroke="#5b7da3" points="699.8101,-1714.4 530.1899,-1714.4 530.1899,-1678.4 699.8101,-1678.4 699.8101,-1714.4"/>
<text text-anchor="middle" x="615" y="-1693.4" font-family="Helvetica,sans-Serif" font-size="10.00" fill="#000000">SPSS mono (.sps / SPSS.txt / .xmf)</text>
</g>
<!-- DF&#45;&gt;P5 -->
<g id="edge17" class="edge">
<title>DF&#45;&gt;P5</title>
<path fill="none" stroke="#666666" d="M575.8039,-1777.2419C583.4498,-1761.4724 594.591,-1738.4935 603.0428,-1721.0618"/>
<polygon fill="#666666" stroke="#666666" points="605.4025,-1721.8106 606.2519,-1714.443 600.9934,-1719.6728 605.4025,-1721.8106"/>
</g>
<!-- P6 -->
<g id="node18" class="node">
<title>P6</title>
<polygon fill="#eef3f8" stroke="#5b7da3" points="781.7934,-1714.4 722.2066,-1714.4 722.2066,-1678.4 781.7934,-1678.4 781.7934,-1714.4"/>
<text text-anchor="middle" x="752" y="-1693.4" font-family="Helvetica,sans-Serif" font-size="10.00" fill="#000000">SPSS .sav</text>
</g>
<!-- DF&#45;&gt;P6 -->
<g id="edge18" class="edge">
<title>DF&#45;&gt;P6</title>
<path fill="none" stroke="#666666" d="M600.9319,-1777.2419C633.3991,-1759.8675 682.2199,-1733.7418 715.5129,-1715.9255"/>
<polygon fill="#666666" stroke="#666666" points="716.9392,-1717.9411 721.9551,-1712.4781 714.6272,-1713.6208 716.9392,-1717.9411"/>
</g>
<!-- P7 -->
<g id="node19" class="node">
<title>P7</title>
<polygon fill="#eef3f8" stroke="#5b7da3" points="883.7183,-1714.4 804.2817,-1714.4 804.2817,-1678.4 883.7183,-1678.4 883.7183,-1714.4"/>
<text text-anchor="middle" x="844" y="-1693.4" font-family="Helvetica,sans-Serif" font-size="10.00" fill="#000000">PDF Dictionary</text>
</g>
<!-- DF&#45;&gt;P7 -->
<g id="edge19" class="edge">
<title>DF&#45;&gt;P7</title>
<path fill="none" stroke="#666666" d="M609.3719,-1780.2563C660.1367,-1762.1129 744.9007,-1731.8182 797.4503,-1713.0369"/>
<polygon fill="#666666" stroke="#666666" points="798.5605,-1715.2419 804.3276,-1710.5789 796.9114,-1710.6278 798.5605,-1715.2419"/>
</g>
<!-- MRG -->
<g id="node20" class="node">
<title>MRG</title>
<polygon fill="#eef3f8" stroke="#5b7da3" points="564.2343,-1605.6 469.7657,-1605.6 469.7657,-1569.6 564.2343,-1569.6 564.2343,-1605.6"/>
<text text-anchor="middle" x="517" y="-1584.6" font-family="Helvetica,sans-Serif" font-size="10.00" fill="#000000">merge_metadata()</text>
</g>
<!-- P1&#45;&gt;MRG -->
<g id="edge20" class="edge">
<title>P1&#45;&gt;MRG</title>
<path fill="none" stroke="#666666" d="M110.3937,-1681.3719C113.9738,-1680.3348 117.5387,-1679.3325 121,-1678.4 242.0688,-1645.7833 385.9441,-1614.6819 462.5745,-1598.7187"/>
<polygon fill="#666666" stroke="#666666" points="463.4225,-1601.0449 469.7775,-1597.2216 462.4253,-1596.2474 463.4225,-1601.0449"/>
</g>
<!-- P2&#45;&gt;MRG -->
<g id="edge21" class="edge">
<title>P2&#45;&gt;MRG</title>
<path fill="none" stroke="#666666" d="M231.7912,-1680.229C293.6935,-1660.1246 398.9663,-1625.9345 462.8343,-1605.1917"/>
<polygon fill="#666666" stroke="#666666" points="463.7459,-1607.4717 469.6468,-1602.9792 462.2323,-1602.8113 463.7459,-1607.4717"/>
</g>
<!-- P3&#45;&gt;MRG -->
<g id="edge22" class="edge">
<title>P3&#45;&gt;MRG</title>
<path fill="none" stroke="#666666" d="M344.6471,-1678.1893C380.8773,-1659.1466 437.7077,-1629.2763 476.1122,-1609.0908"/>
<polygon fill="#666666" stroke="#666666" points="477.5285,-1611.1142 482.5849,-1605.6887 475.2487,-1606.7768 477.5285,-1611.1142"/>
</g>
<!-- P4&#45;&gt;MRG -->
<g id="edge23" class="edge">
<title>P4&#45;&gt;MRG</title>
<path fill="none" stroke="#666666" d="M459.7049,-1677.9436C471.2733,-1659.7024 489.0311,-1631.7017 501.709,-1611.711"/>
<polygon fill="#666666" stroke="#666666" points="503.7879,-1613.0075 505.468,-1605.7839 499.6499,-1610.3832 503.7879,-1613.0075"/>
</g>
<!-- P5&#45;&gt;MRG -->
<g id="edge24" class="edge">
<title>P5&#45;&gt;MRG</title>
<path fill="none" stroke="#666666" d="M598.3756,-1677.9436C581.8035,-1659.5451 556.2885,-1631.2182 538.2536,-1611.1958"/>
<polygon fill="#666666" stroke="#666666" points="539.8842,-1609.3453 533.3788,-1605.7839 536.2433,-1612.6248 539.8842,-1609.3453"/>
</g>
<!-- P6&#45;&gt;MRG -->
<g id="edge25" class="edge">
<title>P6&#45;&gt;MRG</title>
<path fill="none" stroke="#666666" d="M721.759,-1682.399C681.386,-1663.7072 609.5259,-1630.4375 562.572,-1608.6989"/>
<polygon fill="#666666" stroke="#666666" points="563.4994,-1606.4284 556.1178,-1605.7107 561.4407,-1610.875 563.4994,-1606.4284"/>
</g>
<!-- P7&#45;&gt;MRG -->
<g id="edge26" class="edge">
<title>P7&#45;&gt;MRG</title>
<path fill="none" stroke="#666666" d="M804.2157,-1682.2658C800.4285,-1680.9482 796.6437,-1679.6422 793,-1678.4 716.3076,-1652.2541 627.1951,-1623.1707 571.443,-1605.1299"/>
<polygon fill="#666666" stroke="#666666" points="571.8904,-1602.6997 564.4761,-1602.8768 570.3826,-1607.362 571.8904,-1602.6997"/>
</g>
<!-- WR -->
<g id="node21" class="node">
<title>WR</title>
<polygon fill="#eef3f8" stroke="#5b7da3" points="751.7502,-1506.6 552.2498,-1506.6 552.2498,-1470.6 751.7502,-1470.6 751.7502,-1506.6"/>
<text text-anchor="middle" x="652" y="-1485.6" font-family="Helvetica,sans-Serif" font-size="10.00" fill="#000000">write variables.csv / codes.csv / layout.csv</text>
</g>
<!-- MRG&#45;&gt;WR -->
<g id="edge27" class="edge">
<title>MRG&#45;&gt;WR</title>
<path fill="none" stroke="#666666" d="M541.7611,-1569.4419C564.2164,-1552.9746 597.392,-1528.6459 621.4797,-1510.9815"/>
<polygon fill="#666666" stroke="#666666" points="623.1999,-1512.7583 627.3959,-1506.643 620.3022,-1508.8069 623.1999,-1512.7583"/>
</g>
<!-- WR&#45;&gt;TB -->
<g id="edge44" class="edge">
<title>WR&#45;&gt;TB</title>
<path fill="none" stroke="#666666" d="M695.5916,-1470.5635C711.4167,-1464.0156 730.1608,-1456.2601 749.3924,-1448.3028"/>
<polygon fill="#666666" stroke="#666666" points="750.3982,-1450.5381 755.9296,-1445.5979 748.5247,-1446.0104 750.3982,-1450.5381"/>
</g>
<!-- FF -->
<g id="node23" class="node">
<title>FF</title>
<polygon fill="#eef3f8" stroke="#5b7da3" points="889.9061,-1307.6 824.0939,-1307.6 824.0939,-1271.6 889.9061,-1271.6 889.9061,-1307.6"/>
<text text-anchor="middle" x="857" y="-1286.6" font-family="Helvetica,sans-Serif" font-size="10.00" fill="#000000">find data file</text>
</g>
<!-- TB&#45;&gt;FF -->
<g id="edge29" class="edge">
<title>TB&#45;&gt;FF</title>
<path fill="none" stroke="#666666" d="M867.8533,-1380.4339C865.7209,-1362.5874 862.4317,-1335.0589 860.033,-1314.9836"/>
<polygon fill="#666666" stroke="#666666" points="862.4566,-1314.6163 859.1933,-1307.9565 857.5912,-1315.1977 862.4566,-1314.6163"/>
<text text-anchor="middle" x="885.7561" y="-1341.3" font-family="Helvetica,sans-Serif" font-size="9.00" fill="#000000">no / refresh</text>
</g>
<!-- OD -->
<g id="node35" class="node">
<title>OD</title>
<polygon fill="#eef3f8" stroke="#5b7da3" points="952.8181,-171 823.1819,-171 823.1819,-135 952.8181,-135 952.8181,-171"/>
<text text-anchor="middle" x="888" y="-150" font-family="Helvetica,sans-Serif" font-size="10.00" fill="#000000">open read&#45;only connection</text>
</g>
<!-- TB&#45;&gt;OD -->
<g id="edge46" class="edge">
<title>TB&#45;&gt;OD</title>
<path fill="none" stroke="#666666" d="M903.1074,-1385.7895C919.9873,-1376.9908 937,-1363.3285 937,-1344 937,-1344 937,-1344 937,-202.5 937,-192.1839 931.5582,-183.2462 924.3016,-175.9138"/>
<polygon fill="#666666" stroke="#666666" points="925.852,-174.0117 919.0324,-171.0969 922.5459,-177.6283 925.852,-174.0117"/>
<text text-anchor="middle" x="968.0082" y="-754.1" font-family="Helvetica,sans-Serif" font-size="9.00" fill="#000000">yes, not refresh</text>
</g>
<!-- FWF -->
<g id="node24" class="node">
<title>FWF</title>
<polygon fill="#fce8b2" stroke="#5b7da3" points="827,-1208.6 739.95,-1176.6 827,-1144.6 914.05,-1176.6 827,-1208.6"/>
<text text-anchor="middle" x="827" y="-1179.6" font-family="Helvetica,sans-Serif" font-size="10.00" fill="#000000">layout.csv exists</text>
<text text-anchor="middle" x="827" y="-1167.6" font-family="Helvetica,sans-Serif" font-size="10.00" fill="#000000">and file not .csv?</text>
</g>
<!-- FF&#45;&gt;FWF -->
<g id="edge30" class="edge">
<title>FF&#45;&gt;FWF</title>
<path fill="none" stroke="#666666" d="M852.18,-1271.4446C848.0201,-1255.7755 841.8823,-1232.6567 836.7081,-1213.1673"/>
<polygon fill="#666666" stroke="#666666" points="839.0151,-1212.3087 834.8509,-1206.1718 834.2792,-1213.5661 839.0151,-1212.3087"/>
</g>
<!-- RFW -->
<g id="node25" class="node">
<title>RFW</title>
<polygon fill="#eef3f8" stroke="#5b7da3" points="818,-1071.8 764,-1071.8 764,-1035.8 818,-1035.8 818,-1071.8"/>
<text text-anchor="middle" x="791" y="-1050.8" font-family="Helvetica,sans-Serif" font-size="10.00" fill="#000000">read_fwf</text>
</g>
<!-- FWF&#45;&gt;RFW -->
<g id="edge31" class="edge">
<title>FWF&#45;&gt;RFW</title>
<path fill="none" stroke="#666666" d="M817.0333,-1148.2042C813.3836,-1137.4244 809.3368,-1124.9994 806.0123,-1113.6 802.7251,-1102.3285 799.4988,-1089.7376 796.8847,-1079.0272"/>
<polygon fill="#666666" stroke="#666666" points="799.2015,-1078.1832 795.1795,-1071.9521 794.4379,-1079.3313 799.2015,-1078.1832"/>
<text text-anchor="middle" x="826.9938" y="-1105.5" font-family="Helvetica,sans-Serif" font-size="9.00" fill="#000000">yes (FWF)</text>
</g>
<!-- RCS -->
<g id="node26" class="node">
<title>RCS</title>
<polygon fill="#eef3f8" stroke="#5b7da3" points="895,-1071.8 841,-1071.8 841,-1035.8 895,-1035.8 895,-1071.8"/>
<text text-anchor="middle" x="868" y="-1050.8" font-family="Helvetica,sans-Serif" font-size="10.00" fill="#000000">read_csv</text>
</g>
<!-- FWF&#45;&gt;RCS -->
<g id="edge32" class="edge">
<title>FWF&#45;&gt;RCS</title>
<path fill="none" stroke="#666666" d="M837.1375,-1148.1193C840.9274,-1137.3297 845.2259,-1124.9202 849,-1113.6 852.8154,-1102.1557 856.8853,-1089.4223 860.2756,-1078.6566"/>
<polygon fill="#666666" stroke="#666666" points="862.6377,-1079.3119 862.3958,-1071.8995 857.9624,-1077.8449 862.6377,-1079.3119"/>
<text text-anchor="middle" x="870.5004" y="-1105.5" font-family="Helvetica,sans-Serif" font-size="9.00" fill="#000000">no (CSV)</text>
</g>
<!-- JNK -->
<g id="node27" class="node">
<title>JNK</title>
<polygon fill="#eef3f8" stroke="#5b7da3" points="851.7292,-972.8 742.2708,-972.8 742.2708,-936.8 851.7292,-936.8 851.7292,-972.8"/>
<text text-anchor="middle" x="797" y="-951.8" font-family="Helvetica,sans-Serif" font-size="10.00" fill="#000000">drop trailing junk rows</text>
</g>
<!-- RFW&#45;&gt;JNK -->
<g id="edge33" class="edge">
<title>RFW&#45;&gt;JNK</title>
<path fill="none" stroke="#666666" d="M792.1005,-1035.6419C793.0478,-1020.0119 794.4243,-997.2997 795.4772,-979.9259"/>
<polygon fill="#666666" stroke="#666666" points="797.9284,-979.9784 795.9065,-972.843 793.0374,-979.6819 797.9284,-979.9784"/>
</g>
<!-- RCS&#45;&gt;JNK -->
<g id="edge34" class="edge">
<title>RCS&#45;&gt;JNK</title>
<path fill="none" stroke="#666666" d="M854.9775,-1035.6419C843.4679,-1019.5933 826.6033,-996.0779 814.0267,-978.5415"/>
<polygon fill="#666666" stroke="#666666" points="816.0104,-977.1035 809.9399,-972.843 812.0286,-979.9592 816.0104,-977.1035"/>
</g>
<!-- FX -->
<g id="node28" class="node">
<title>FX</title>
<polygon fill="#eef3f8" stroke="#5b7da3" points="887.418,-873.8 706.582,-873.8 706.582,-837.8 887.418,-837.8 887.418,-873.8"/>
<text text-anchor="middle" x="797" y="-858.8" font-family="Helvetica,sans-Serif" font-size="10.00" fill="#000000">apply data fixups</text>
<text text-anchor="middle" x="797" y="-846.8" font-family="Helvetica,sans-Serif" font-size="10.00" fill="#000000">(str_pad, rename, cols_swap, force_*)</text>
</g>
<!-- JNK&#45;&gt;FX -->
<g id="edge35" class="edge">
<title>JNK&#45;&gt;FX</title>
<path fill="none" stroke="#666666" d="M797,-936.6419C797,-921.0119 797,-898.2997 797,-880.9259"/>
<polygon fill="#666666" stroke="#666666" points="799.4501,-880.843 797,-873.843 794.5501,-880.843 799.4501,-880.843"/>
</g>
<!-- BSW -->
<g id="node29" class="node">
<title>BSW</title>
<polygon fill="#fce8b2" stroke="#5b7da3" points="797,-774.8 700.6125,-756.8 797,-738.8 893.3875,-756.8 797,-774.8"/>
<text text-anchor="middle" x="797" y="-753.8" font-family="Helvetica,sans-Serif" font-size="10.00" fill="#000000">BSW mask in registry?</text>
</g>
<!-- FX&#45;&gt;BSW -->
<g id="edge36" class="edge">
<title>FX&#45;&gt;BSW</title>
<path fill="none" stroke="#666666" d="M797,-837.6419C797,-822.0119 797,-799.2997 797,-781.9259"/>
<polygon fill="#666666" stroke="#666666" points="799.4501,-781.843 797,-774.843 794.5501,-781.843 799.4501,-781.843"/>
</g>
<!-- RBW -->
<g id="node30" class="node">
<title>RBW</title>
<polygon fill="#eef3f8" stroke="#5b7da3" points="823.1904,-666 714.8096,-666 714.8096,-630 823.1904,-630 823.1904,-666"/>
<text text-anchor="middle" x="769" y="-645" font-family="Helvetica,sans-Serif" font-size="10.00" fill="#000000">join bootstrap weights</text>
</g>
<!-- BSW&#45;&gt;RBW -->
<g id="edge37" class="edge">
<title>BSW&#45;&gt;RBW</title>
<path fill="none" stroke="#666666" d="M792.5013,-739.3194C787.8826,-721.3724 780.6516,-693.2749 775.4299,-672.9847"/>
<polygon fill="#666666" stroke="#666666" points="777.7916,-672.3313 773.6743,-666.1628 773.0463,-673.5526 777.7916,-672.3313"/>
<text text-anchor="middle" x="790.0015" y="-699.7" font-family="Helvetica,sans-Serif" font-size="9.00" fill="#000000">yes</text>
</g>
<!-- NC -->
<g id="node31" class="node">
<title>NC</title>
<polygon fill="#eef3f8" stroke="#5b7da3" points="913.3571,-567 770.6429,-567 770.6429,-531 913.3571,-531 913.3571,-567"/>
<text text-anchor="middle" x="842" y="-552" font-family="Helvetica,sans-Serif" font-size="10.00" fill="#000000">numeric conversion</text>
<text text-anchor="middle" x="842" y="-540" font-family="Helvetica,sans-Serif" font-size="10.00" fill="#000000">(missing ranges + na_values)</text>
</g>
<!-- BSW&#45;&gt;NC -->
<g id="edge38" class="edge">
<title>BSW&#45;&gt;NC</title>
<path fill="none" stroke="#666666" d="M830.7698,-744.9774C848.6701,-736.3348 867,-722.5624 867,-702.4 867,-702.4 867,-702.4 867,-598.5 867,-589.775 863.867,-581.0241 859.8193,-573.359"/>
<polygon fill="#666666" stroke="#666666" points="861.8808,-572.0299 856.2527,-567.2001 857.6405,-574.4855 861.8808,-572.0299"/>
<text text-anchor="middle" x="872.0031" y="-645.3" font-family="Helvetica,sans-Serif" font-size="9.00" fill="#000000">no</text>
</g>
<!-- RBW&#45;&gt;NC -->
<g id="edge39" class="edge">
<title>RBW&#45;&gt;NC</title>
<path fill="none" stroke="#666666" d="M782.3893,-629.8419C794.2231,-613.7933 811.5628,-590.2779 824.4936,-572.7415"/>
<polygon fill="#666666" stroke="#666666" points="826.5131,-574.131 828.6956,-567.043 822.5693,-571.223 826.5131,-574.131"/>
</g>
<!-- CL -->
<g id="node32" class="node">
<title>CL</title>
<polygon fill="#eef3f8" stroke="#5b7da3" points="895.4731,-468 788.5269,-468 788.5269,-432 895.4731,-432 895.4731,-468"/>
<text text-anchor="middle" x="842" y="-447" font-family="Helvetica,sans-Serif" font-size="10.00" fill="#000000">code labels to factors</text>
</g>
<!-- NC&#45;&gt;CL -->
<g id="edge40" class="edge">
<title>NC&#45;&gt;CL</title>
<path fill="none" stroke="#666666" d="M842,-530.8419C842,-515.2119 842,-492.4997 842,-475.1259"/>
<polygon fill="#666666" stroke="#666666" points="844.4501,-475.043 842,-468.043 839.5501,-475.043 844.4501,-475.043"/>
</g>
<!-- WD -->
<g id="node33" class="node">
<title>WD</title>
<polygon fill="#eef3f8" stroke="#5b7da3" points="890.504,-369 793.496,-369 793.496,-333 890.504,-333 890.504,-369"/>
<text text-anchor="middle" x="842" y="-348" font-family="Helvetica,sans-Serif" font-size="10.00" fill="#000000">write DuckDB table</text>
</g>
<!-- CL&#45;&gt;WD -->
<g id="edge41" class="edge">
<title>CL&#45;&gt;WD</title>
<path fill="none" stroke="#666666" d="M842,-431.8419C842,-416.2119 842,-393.4997 842,-376.1259"/>
<polygon fill="#666666" stroke="#666666" points="844.4501,-376.043 842,-369.043 839.5501,-376.043 844.4501,-376.043"/>
</g>
<!-- EN -->
<g id="node34" class="node">
<title>EN</title>
<polygon fill="#eef3f8" stroke="#5b7da3" points="914.2462,-270 769.7538,-270 769.7538,-234 914.2462,-234 914.2462,-270"/>
<text text-anchor="middle" x="842" y="-249" font-family="Helvetica,sans-Serif" font-size="10.00" fill="#000000">enforce ENUM / force_* types</text>
</g>
<!-- WD&#45;&gt;EN -->
<g id="edge42" class="edge">
<title>WD&#45;&gt;EN</title>
<path fill="none" stroke="#666666" d="M842,-332.8419C842,-317.2119 842,-294.4997 842,-277.1259"/>
<polygon fill="#666666" stroke="#666666" points="844.4501,-277.043 842,-270.043 839.5501,-277.043 844.4501,-277.043"/>
</g>
<!-- EN&#45;&gt;OD -->
<g id="edge43" class="edge">
<title>EN&#45;&gt;OD</title>
<path fill="none" stroke="#666666" d="M850.4371,-233.8419C857.7643,-218.0724 868.4414,-195.0935 876.541,-177.6618"/>
<polygon fill="#666666" stroke="#666666" points="878.8885,-178.4236 879.6164,-171.043 874.4448,-176.3588 878.8885,-178.4236"/>
</g>
<!-- REG -->
<g id="node36" class="node">
<title>REG</title>
<path fill="#d9ead3" stroke="#5b7da3" d="M975.1942,-103C975.1942,-103 800.8058,-103 800.8058,-103 794.8058,-103 788.8058,-97 788.8058,-91 788.8058,-91 788.8058,-79 788.8058,-79 788.8058,-73 794.8058,-67 800.8058,-67 800.8058,-67 975.1942,-67 975.1942,-67 981.1942,-67 987.1942,-73 987.1942,-79 987.1942,-79 987.1942,-91 987.1942,-91 987.1942,-97 981.1942,-103 975.1942,-103"/>
<text text-anchor="middle" x="888" y="-82" font-family="Helvetica,sans-Serif" font-size="10.00" fill="#000000">register provenance (series, version, lang)</text>
</g>
<!-- OD&#45;&gt;REG -->
<g id="edge47" class="edge">
<title>OD&#45;&gt;REG</title>
<path fill="none" stroke="#666666" d="M888,-134.7772C888,-127.3074 888,-118.5321 888,-110.447"/>
<polygon fill="#666666" stroke="#666666" points="890.4501,-110.273 888,-103.2731 885.5501,-110.2731 890.4501,-110.273"/>
</g>
<!-- TBL -->
<g id="node37" class="node">
<title>TBL</title>
<path fill="#d9ead3" stroke="#5b7da3" d="M928.8891,-36C928.8891,-36 847.1109,-36 847.1109,-36 841.1109,-36 835.1109,-30 835.1109,-24 835.1109,-24 835.1109,-12 835.1109,-12 835.1109,-6 841.1109,0 847.1109,0 847.1109,0 928.8891,0 928.8891,0 934.8891,0 940.8891,-6 940.8891,-12 940.8891,-12 940.8891,-24 940.8891,-24 940.8891,-30 934.8891,-36 928.8891,-36"/>
<text text-anchor="middle" x="888" y="-15" font-family="Helvetica,sans-Serif" font-size="10.00" fill="#000000">return lazy dplyr::tbl()</text>
</g>
<!-- REG&#45;&gt;TBL -->
<g id="edge48" class="edge">
<title>REG&#45;&gt;TBL</title>
<path fill="none" stroke="#666666" d="M888,-66.692C888,-59.6016 888,-51.3593 888,-43.6944"/>
<polygon fill="#666666" stroke="#666666" points="890.4501,-43.2859 888,-36.2859 885.5501,-43.2859 890.4501,-43.2859"/>
</g>
</g>
</svg>

