<?xml version="1.0" encoding="UTF-8" standalone="no"?>
<!DOCTYPE svg PUBLIC "-//W3C//DTD SVG 1.1//EN"
 "http://www.w3.org/Graphics/SVG/1.1/DTD/svg11.dtd">
<!-- Generated by graphviz version 2.40.1 (20161225.0304)
 -->
<!-- Title: pipeline Pages: 1 -->
<svg width="1134pt" height="2721pt"
 viewBox="0.00 0.00 1134.02 2720.60" xmlns="http://www.w3.org/2000/svg" xmlns:xlink="http://www.w3.org/1999/xlink">
<g id="graph0" class="graph" transform="scale(1 1) rotate(0) translate(4 2716.6)">
<title>pipeline</title>
<polygon fill="#ffffff" stroke="transparent" points="-4,4 -4,-2716.6 1130.0163,-2716.6 1130.0163,4 -4,4"/>
<g id="clust1" class="cluster">
<title>cluster_s1</title>
<path fill="#fbfdff" stroke="#9fb6cc" d="M623,-1978.2C623,-1978.2 859,-1978.2 859,-1978.2 865,-1978.2 871,-1984.2 871,-1990.2 871,-1990.2 871,-2563.8 871,-2563.8 871,-2569.8 865,-2575.8 859,-2575.8 859,-2575.8 623,-2575.8 623,-2575.8 617,-2575.8 611,-2569.8 611,-2563.8 611,-2563.8 611,-1990.2 611,-1990.2 611,-1984.2 617,-1978.2 623,-1978.2"/>
<text text-anchor="middle" x="691.446" y="-2561.9" font-family="Helvetica,sans-Serif" font-weight="bold" font-size="11.00" fill="#000000">Stage 1 &#160;— &#160;locate / download</text>
</g>
<g id="clust2" class="cluster">
<title>cluster_s2</title>
<path fill="#fbfdff" stroke="#9fb6cc" d="M20,-1462.6C20,-1462.6 1026,-1462.6 1026,-1462.6 1032,-1462.6 1038,-1468.6 1038,-1474.6 1038,-1474.6 1038,-1939.4 1038,-1939.4 1038,-1945.4 1032,-1951.4 1026,-1951.4 1026,-1951.4 20,-1951.4 20,-1951.4 14,-1951.4 8,-1945.4 8,-1939.4 8,-1939.4 8,-1474.6 8,-1474.6 8,-1468.6 14,-1462.6 20,-1462.6"/>
<text text-anchor="middle" x="83.8606" y="-1937.5" font-family="Helvetica,sans-Serif" font-weight="bold" font-size="11.00" fill="#000000">Stage 2 &#160;— &#160;parse metadata</text>
</g>
<g id="clust3" class="cluster">
<title>cluster_s3</title>
<path fill="#fbfdff" stroke="#9fb6cc" d="M706,-127C706,-127 996,-127 996,-127 1002,-127 1008,-133 1008,-139 1008,-139 1008,-1433.6 1008,-1433.6 1008,-1439.6 1002,-1445.6 996,-1445.6 996,-1445.6 706,-1445.6 706,-1445.6 700,-1445.6 694,-1439.6 694,-1433.6 694,-1433.6 694,-139 694,-139 694,-133 700,-127 706,-127"/>
<text text-anchor="middle" x="764.9618" y="-1431.7" font-family="Helvetica,sans-Serif" font-weight="bold" font-size="11.00" fill="#000000">Stage 3 &#160;— &#160;build DuckDB</text>
</g>
<!-- A -->
<g id="node1" class="node">
<title>A</title>
<path fill="#d9ead3" stroke="#5b7da3" d="M647.7432,-2712.6C647.7432,-2712.6 522.2568,-2712.6 522.2568,-2712.6 516.2568,-2712.6 510.2568,-2706.6 510.2568,-2700.6 510.2568,-2700.6 510.2568,-2688.6 510.2568,-2688.6 510.2568,-2682.6 516.2568,-2676.6 522.2568,-2676.6 522.2568,-2676.6 647.7432,-2676.6 647.7432,-2676.6 653.7432,-2676.6 659.7432,-2682.6 659.7432,-2688.6 659.7432,-2688.6 659.7432,-2700.6 659.7432,-2700.6 659.7432,-2706.6 653.7432,-2712.6 647.7432,-2712.6"/>
<text text-anchor="middle" x="585" y="-2691.6" font-family="Helvetica,sans-Serif" font-size="10.00" fill="#000000">get_pumf(series, version, lang)</text>
</g>
<!-- LFS -->
<g id="node2" class="node">
<title>LFS</title>
<polygon fill="#fce8b2" stroke="#5b7da3" points="585,-2645.6 517.2761,-2627.6 585,-2609.6 652.7239,-2627.6 585,-2645.6"/>
<text text-anchor="middle" x="585" y="-2624.6" font-family="Helvetica,sans-Serif" font-size="10.00" fill="#000000">series == LFS?</text>
</g>
<!-- A&#45;&gt;LFS -->
<g id="edge1" class="edge">
<title>A&#45;&gt;LFS</title>
<path fill="none" stroke="#666666" d="M585,-2676.292C585,-2669.2016 585,-2660.9593 585,-2653.2944"/>
<polygon fill="#666666" stroke="#666666" points="587.4501,-2652.8859 585,-2645.8859 582.5501,-2652.8859 587.4501,-2652.8859"/>
</g>
<!-- LFSP -->
<g id="node3" class="node">
<title>LFSP</title>
<path fill="#d9ead3" stroke="#5b7da3" d="M590.8971,-2546.6C590.8971,-2546.6 539.1029,-2546.6 539.1029,-2546.6 533.1029,-2546.6 527.1029,-2540.6 527.1029,-2534.6 527.1029,-2534.6 527.1029,-2522.6 527.1029,-2522.6 527.1029,-2516.6 533.1029,-2510.6 539.1029,-2510.6 539.1029,-2510.6 590.8971,-2510.6 590.8971,-2510.6 596.8971,-2510.6 602.8971,-2516.6 602.8971,-2522.6 602.8971,-2522.6 602.8971,-2534.6 602.8971,-2534.6 602.8971,-2540.6 596.8971,-2546.6 590.8971,-2546.6"/>
<text text-anchor="middle" x="565" y="-2525.6" font-family="Helvetica,sans-Serif" font-size="10.00" fill="#000000">lfs_get_pumf()</text>
</g>
<!-- LFS&#45;&gt;LFSP -->
<g id="edge2" class="edge">
<title>LFS&#45;&gt;LFSP</title>
<path fill="none" stroke="#666666" d="M581.5163,-2610.3555C578.363,-2594.7469 573.6787,-2571.5595 570.1032,-2553.8611"/>
<polygon fill="#666666" stroke="#666666" points="572.4342,-2553.0264 568.6465,-2546.6502 567.6312,-2553.9968 572.4342,-2553.0264"/>
<text text-anchor="middle" x="584.0015" y="-2586.5" font-family="Helvetica,sans-Serif" font-size="9.00" fill="#000000">yes</text>
</g>
<!-- CHK -->
<g id="node4" class="node">
<title>CHK</title>
<polygon fill="#fce8b2" stroke="#5b7da3" points="713,-2546.6 634.5117,-2528.6 713,-2510.6 791.4883,-2528.6 713,-2546.6"/>
<text text-anchor="middle" x="713" y="-2525.6" font-family="Helvetica,sans-Serif" font-size="10.00" fill="#000000">version dir exists?</text>
</g>
<!-- LFS&#45;&gt;CHK -->
<g id="edge3" class="edge">
<title>LFS&#45;&gt;CHK</title>
<path fill="none" stroke="#666666" d="M602.5295,-2614.0421C614.0441,-2605.1362 629.913,-2592.8626 646.0334,-2580.3945"/>
<polygon fill="#666666" stroke="#666666" points="647.9381,-2582.0186 651.9763,-2575.798 644.9403,-2578.1427 647.9381,-2582.0186"/>
<text text-anchor="middle" x="646.0031" y="-2586.5" font-family="Helvetica,sans-Serif" font-size="9.00" fill="#000000">no</text>
</g>
<!-- COL -->
<g id="node5" class="node">
<title>COL</title>
<polygon fill="#eef3f8" stroke="#5b7da3" points="768.962,-2437.8 657.038,-2437.8 657.038,-2401.8 768.962,-2401.8 768.962,-2437.8"/>
<text text-anchor="middle" x="713" y="-2416.8" font-family="Helvetica,sans-Serif" font-size="10.00" fill="#000000">look up collection URL</text>
</g>
<!-- CHK&#45;&gt;COL -->
<g id="edge5" class="edge">
<title>CHK&#45;&gt;COL</title>
<path fill="none" stroke="#666666" d="M713,-2510.1436C713,-2492.2955 713,-2465.1041 713,-2445.2145"/>
<polygon fill="#666666" stroke="#666666" points="715.4501,-2444.9838 713,-2437.9839 710.5501,-2444.9839 715.4501,-2444.9838"/>
<text text-anchor="middle" x="735.7561" y="-2471.5" font-family="Helvetica,sans-Serif" font-size="9.00" fill="#000000">no / refresh</text>
</g>
<!-- EXTR -->
<g id="node10" class="node">
<title>EXTR</title>
<polygon fill="#fce8b2" stroke="#5b7da3" points="770,-2022.2 676.7442,-2004.2 770,-1986.2 863.2558,-2004.2 770,-2022.2"/>
<text text-anchor="middle" x="770" y="-2001.2" font-family="Helvetica,sans-Serif" font-size="10.00" fill="#000000">zip already extracted?</text>
</g>
<!-- CHK&#45;&gt;EXTR -->
<g id="edge4" class="edge">
<title>CHK&#45;&gt;EXTR</title>
<path fill="none" stroke="#666666" d="M753.6513,-2519.7951C776.7089,-2512.1475 801,-2498.3579 801,-2474.2 801,-2474.2 801,-2474.2 801,-2287.3 801,-2253.7915 834.8782,-2259.9024 850,-2230 860.606,-2209.0272 862,-2202.002 862,-2178.5 862,-2178.5 862,-2178.5 862,-2058.6 862,-2037.0846 843.1263,-2023.8992 822.4759,-2015.9118"/>
<polygon fill="#666666" stroke="#666666" points="823.1467,-2013.5497 815.7305,-2013.4971 821.4952,-2018.163 823.1467,-2013.5497"/>
<text text-anchor="middle" x="844.0082" y="-2263.7" font-family="Helvetica,sans-Serif" font-size="9.00" fill="#000000">yes, not refresh</text>
</g>
<!-- EFT -->
<g id="node6" class="node">
<title>EFT</title>
<polygon fill="#fce8b2" stroke="#5b7da3" points="713,-2338.8 663.6606,-2320.8 713,-2302.8 762.3394,-2320.8 713,-2338.8"/>
<text text-anchor="middle" x="713" y="-2317.8" font-family="Helvetica,sans-Serif" font-size="10.00" fill="#000000">EFT&#45;only?</text>
</g>
<!-- COL&#45;&gt;EFT -->
<g id="edge6" class="edge">
<title>COL&#45;&gt;EFT</title>
<path fill="none" stroke="#666666" d="M713,-2401.6419C713,-2386.0119 713,-2363.2997 713,-2345.9259"/>
<polygon fill="#666666" stroke="#666666" points="715.4501,-2345.843 713,-2338.843 710.5501,-2345.843 715.4501,-2345.843"/>
</g>
<!-- ERR -->
<g id="node7" class="node">
<title>ERR</title>
<polygon fill="#f4cccc" stroke="#5b7da3" points="746.528,-2230 619.472,-2230 619.472,-2194 746.528,-2194 746.528,-2230"/>
<text text-anchor="middle" x="683" y="-2209" font-family="Helvetica,sans-Serif" font-size="10.00" fill="#000000">stop: deposit zip manually</text>
</g>
<!-- EFT&#45;&gt;ERR -->
<g id="edge7" class="edge">
<title>EFT&#45;&gt;ERR</title>
<path fill="none" stroke="#666666" d="M708.4436,-2304.2756C703.517,-2286.4083 695.6064,-2257.7193 689.913,-2237.0713"/>
<polygon fill="#666666" stroke="#666666" points="692.2229,-2236.231 688.0002,-2230.1341 687.4991,-2237.5336 692.2229,-2236.231"/>
<text text-anchor="middle" x="705.0015" y="-2263.7" font-family="Helvetica,sans-Serif" font-size="9.00" fill="#000000">yes</text>
</g>
<!-- DL -->
<g id="node8" class="node">
<title>DL</title>
<polygon fill="#eef3f8" stroke="#5b7da3" points="839.3499,-2230 768.6501,-2230 768.6501,-2194 839.3499,-2194 839.3499,-2230"/>
<text text-anchor="middle" x="804" y="-2209" font-family="Helvetica,sans-Serif" font-size="10.00" fill="#000000">download zip</text>
</g>
<!-- EFT&#45;&gt;DL -->
<g id="edge8" class="edge">
<title>EFT&#45;&gt;DL</title>
<path fill="none" stroke="#666666" d="M724.8967,-2306.5763C739.9332,-2288.5986 766.0322,-2257.3945 784.119,-2235.7698"/>
<polygon fill="#666666" stroke="#666666" points="786.1505,-2237.1597 788.7622,-2230.2183 782.3919,-2234.0159 786.1505,-2237.1597"/>
<text text-anchor="middle" x="766.0031" y="-2263.7" font-family="Helvetica,sans-Serif" font-size="9.00" fill="#000000">no</text>
</g>
<!-- UZ -->
<g id="node9" class="node">
<title>UZ</title>
<polygon fill="#eef3f8" stroke="#5b7da3" points="838.8981,-2131 763.1019,-2131 763.1019,-2095 838.8981,-2095 838.8981,-2131"/>
<text text-anchor="middle" x="801" y="-2110" font-family="Helvetica,sans-Serif" font-size="10.00" fill="#000000">robust_unzip()</text>
</g>
<!-- DL&#45;&gt;UZ -->
<g id="edge9" class="edge">
<title>DL&#45;&gt;UZ</title>
<path fill="none" stroke="#666666" d="M803.4498,-2193.8419C802.9761,-2178.2119 802.2879,-2155.4997 801.7614,-2138.1259"/>
<polygon fill="#666666" stroke="#666666" points="804.2078,-2137.9656 801.5468,-2131.043 799.31,-2138.114 804.2078,-2137.9656"/>
</g>
<!-- UZ&#45;&gt;EXTR -->
<g id="edge10" class="edge">
<title>UZ&#45;&gt;EXTR</title>
<path fill="none" stroke="#666666" d="M792.4854,-2094.706C788.5326,-2085.6293 784.0454,-2074.4057 781,-2064 777.6995,-2052.7228 775.1895,-2039.9465 773.4066,-2029.107"/>
<polygon fill="#666666" stroke="#666666" points="775.7902,-2028.4915 772.2876,-2021.9543 770.9491,-2029.2489 775.7902,-2028.4915"/>
</g>
<!-- EXTR&#45;&gt;UZ -->
<g id="edge11" class="edge">
<title>EXTR&#45;&gt;UZ</title>
<path fill="none" stroke="#666666" d="M775.238,-2021.3133C776.7868,-2026.4196 778.4754,-2032.0324 780,-2037.2 785.4695,-2055.7382 786.8601,-2060.3678 792,-2079 792.8038,-2081.9137 793.6332,-2084.9718 794.4483,-2088.0095"/>
<polygon fill="#666666" stroke="#666666" points="792.1365,-2088.8493 796.3055,-2094.983 796.8715,-2087.5882 792.1365,-2088.8493"/>
<text text-anchor="middle" x="792.0031" y="-2055.9" font-family="Helvetica,sans-Serif" font-size="9.00" fill="#000000">no</text>
</g>
<!-- MC -->
<g id="node11" class="node">
<title>MC</title>
<polygon fill="#fce8b2" stroke="#5b7da3" points="770,-1922.2 665.0581,-1904.2 770,-1886.2 874.9419,-1904.2 770,-1922.2"/>
<text text-anchor="middle" x="770" y="-1901.2" font-family="Helvetica,sans-Serif" font-size="10.00" fill="#000000">metadata already exists?</text>
</g>
<!-- EXTR&#45;&gt;MC -->
<g id="edge30" class="edge">
<title>EXTR&#45;&gt;MC</title>
<path fill="none" stroke="#666666" d="M770,-1985.8585C770,-1978.0168 770,-1968.4102 770,-1958.5761"/>
<polygon fill="#666666" stroke="#666666" points="772.4501,-1958.3971 770,-1951.3972 767.5501,-1958.3972 772.4501,-1958.3971"/>
<text text-anchor="middle" x="777.0015" y="-1962.1" font-family="Helvetica,sans-Serif" font-size="9.00" fill="#000000">yes</text>
</g>
<!-- DF -->
<g id="node12" class="node">
<title>DF</title>
<polygon fill="#eef3f8" stroke="#5b7da3" points="657.2863,-1813.4 572.7137,-1813.4 572.7137,-1777.4 657.2863,-1777.4 657.2863,-1813.4"/>
<text text-anchor="middle" x="615" y="-1792.4" font-family="Helvetica,sans-Serif" font-size="10.00" fill="#000000">detect_formats()</text>
</g>
<!-- MC&#45;&gt;DF -->
<g id="edge12" class="edge">
<title>MC&#45;&gt;DF</title>
<path fill="none" stroke="#666666" d="M749.096,-1889.5267C722.7566,-1871.0382 677.24,-1839.0885 646.6327,-1817.6041"/>
<polygon fill="#666666" stroke="#666666" points="647.8571,-1815.4703 640.7201,-1813.4539 645.0419,-1819.4809 647.8571,-1815.4703"/>
<text text-anchor="middle" x="719.7561" y="-1847.1" font-family="Helvetica,sans-Serif" font-size="9.00" fill="#000000">no / refresh</text>
</g>
<!-- TB -->
<g id="node23" class="node">
<title>TB</title>
<polygon fill="#fce8b2" stroke="#5b7da3" points="872,-1416.4 765.7367,-1398.4 872,-1380.4 978.2633,-1398.4 872,-1416.4"/>
<text text-anchor="middle" x="872" y="-1395.4" font-family="Helvetica,sans-Serif" font-size="10.00" fill="#000000">table already in DuckDB?</text>
</g>
<!-- MC&#45;&gt;TB -->
<g id="edge47" class="edge">
<title>MC&#45;&gt;TB</title>
<path fill="none" stroke="#666666" d="M839.6739,-1898.1286C926.6137,-1889.5922 1064,-1872.5098 1064,-1849.8 1064,-1849.8 1064,-1849.8 1064,-1488.6 1064,-1457.103 978.286,-1427.4279 921.398,-1411.2011"/>
<polygon fill="#666666" stroke="#666666" points="922.0131,-1408.8291 914.611,-1409.2897 920.6847,-1413.5456 922.0131,-1408.8291"/>
<text text-anchor="middle" x="1095.0082" y="-1655.3" font-family="Helvetica,sans-Serif" font-size="9.00" fill="#000000">yes, not refresh</text>
</g>
<!-- P1 -->
<g id="node13" class="node">
<title>P1</title>
<polygon fill="#eef3f8" stroke="#5b7da3" points="110.2493,-1714.4 15.7507,-1714.4 15.7507,-1678.4 110.2493,-1678.4 110.2493,-1714.4"/>
<text text-anchor="middle" x="63" y="-1693.4" font-family="Helvetica,sans-Serif" font-size="10.00" fill="#000000">LFS codebook.csv</text>
</g>
<!-- DF&#45;&gt;P1 -->
<g id="edge13" class="edge">
<title>DF&#45;&gt;P1</title>
<path fill="none" stroke="#666666" d="M572.6478,-1790.4643C486.7458,-1780.0135 286.1547,-1753.3698 121,-1714.4 119.8007,-1714.117 118.59,-1713.8223 117.3715,-1713.5177"/>
<polygon fill="#666666" stroke="#666666" points="117.7238,-1711.0774 110.3315,-1711.6746 116.4827,-1715.8176 117.7238,-1711.0774"/>
</g>
<!-- P2 -->
<g id="node14" class="node">
<title>P2</title>
<polygon fill="#eef3f8" stroke="#5b7da3" points="231.7872,-1714.4 132.2128,-1714.4 132.2128,-1678.4 231.7872,-1678.4 231.7872,-1714.4"/>
<text text-anchor="middle" x="182" y="-1693.4" font-family="Helvetica,sans-Serif" font-size="10.00" fill="#000000">CPSS variables.csv</text>
</g>
<!-- DF&#45;&gt;P2 -->
<g id="edge14" class="edge">
<title>DF&#45;&gt;P2</title>
<path fill="none" stroke="#666666" d="M572.6456,-1787.2189C503.3596,-1773.603 361.6172,-1744.7723 243,-1714.4 241.6362,-1714.0508 240.2569,-1713.6917 238.8671,-1713.3246"/>
<polygon fill="#666666" stroke="#666666" points="239.2496,-1710.8902 231.8529,-1711.4309 237.9724,-1715.6209 239.2496,-1710.8902"/>
</g>
<!-- P3 -->
<g id="node15" class="node">
<title>P3</title>
<polygon fill="#eef3f8" stroke="#5b7da3" points="365.7403,-1714.4 254.2597,-1714.4 254.2597,-1678.4 365.7403,-1678.4 365.7403,-1714.4"/>
<text text-anchor="middle" x="310" y="-1693.4" font-family="Helvetica,sans-Serif" font-size="10.00" fill="#000000">SAS cards (.lay + .lbe)</text>
</g>
<!-- DF&#45;&gt;P3 -->
<g id="edge15" class="edge">
<title>DF&#45;&gt;P3</title>
<path fill="none" stroke="#666666" d="M572.5911,-1781.6345C520.5802,-1764.7523 431.9868,-1735.9957 372.2507,-1716.606"/>
<polygon fill="#666666" stroke="#666666" points="372.8909,-1714.238 365.4764,-1714.4071 371.378,-1718.8986 372.8909,-1714.238"/>
</g>
<!-- P4 -->
<g id="node16" class="node">
<title>P4</title>
<polygon fill="#eef3f8" stroke="#5b7da3" points="507.7882,-1714.4 388.2118,-1714.4 388.2118,-1678.4 507.7882,-1678.4 507.7882,-1714.4"/>
<text text-anchor="middle" x="448" y="-1693.4" font-family="Helvetica,sans-Serif" font-size="10.00" fill="#000000">SPSS split (vare/vale/_i)</text>
</g>
<!-- DF&#45;&gt;P4 -->
<g id="edge16" class="edge">
<title>DF&#45;&gt;P4</title>
<path fill="none" stroke="#666666" d="M584.3696,-1777.2419C556.2384,-1760.5653 514.5067,-1735.8261 484.6238,-1718.1111"/>
<polygon fill="#666666" stroke="#666666" points="485.707,-1715.9051 478.4362,-1714.443 483.2083,-1720.1202 485.707,-1715.9051"/>
</g>
<!-- P5 -->
<g id="node17" class="node">
<title>P5</title>
<polygon fill="#eef3f8" stroke="#5b7da3" points="699.8101,-1714.4 530.1899,-1714.4 530.1899,-1678.4 699.8101,-1678.4 699.8101,-1714.4"/>
<text text-anchor="middle" x="615" y="-1693.4" font-family="Helvetica,sans-Serif" font-size="10.00" fill="#000000">SPSS mono (.sps / SPSS.txt / .xmf)</text>
</g>
<!-- DF&#45;&gt;P5 -->
<g id="edge17" class="edge">
<title>DF&#45;&gt;P5</title>
<path fill="none" stroke="#666666" d="M615,-1777.2419C615,-1761.6119 615,-1738.8997 615,-1721.5259"/>
<polygon fill="#666666" stroke="#666666" points="617.4501,-1721.443 615,-1714.443 612.5501,-1721.443 617.4501,-1721.443"/>
</g>
<!-- P6 -->
<g id="node18" class="node">
<title>P6</title>
<polygon fill="#eef3f8" stroke="#5b7da3" points="781.7934,-1714.4 722.2066,-1714.4 722.2066,-1678.4 781.7934,-1678.4 781.7934,-1714.4"/>
<text text-anchor="middle" x="752" y="-1693.4" font-family="Helvetica,sans-Serif" font-size="10.00" fill="#000000">SPSS .sav</text>
</g>
<!-- DF&#45;&gt;P6 -->
<g id="edge18" class="edge">
<title>DF&#45;&gt;P6</title>
<path fill="none" stroke="#666666" d="M640.1279,-1777.2419C663.0125,-1760.7048 696.8685,-1736.2396 721.3378,-1718.5573"/>
<polygon fill="#666666" stroke="#666666" points="722.7927,-1720.5288 727.0314,-1714.443 719.9227,-1716.5572 722.7927,-1720.5288"/>
</g>
<!-- P7 -->
<g id="node19" class="node">
<title>P7</title>
<polygon fill="#eef3f8" stroke="#5b7da3" points="883.7183,-1714.4 804.2817,-1714.4 804.2817,-1678.4 883.7183,-1678.4 883.7183,-1714.4"/>
<text text-anchor="middle" x="844" y="-1693.4" font-family="Helvetica,sans-Serif" font-size="10.00" fill="#000000">PDF Dictionary</text>
</g>
<!-- DF&#45;&gt;P7 -->
<g id="edge19" class="edge">
<title>DF&#45;&gt;P7</title>
<path fill="none" stroke="#666666" d="M656.7359,-1777.357C696.5339,-1760.1517 756.358,-1734.2889 797.627,-1716.4477"/>
<polygon fill="#666666" stroke="#666666" points="798.6321,-1718.6824 804.0852,-1713.6558 796.6877,-1714.1847 798.6321,-1718.6824"/>
</g>
<!-- P8 -->
<g id="node20" class="node">
<title>P8</title>
<polygon fill="#eef3f8" stroke="#5b7da3" points="1030.3121,-1714.4 905.6879,-1714.4 905.6879,-1678.4 1030.3121,-1678.4 1030.3121,-1714.4"/>
<text text-anchor="middle" x="968" y="-1693.4" font-family="Helvetica,sans-Serif" font-size="10.00" fill="#000000">PDF frequency codebook</text>
</g>
<!-- DF&#45;&gt;P8 -->
<g id="edge20" class="edge">
<title>DF&#45;&gt;P8</title>
<path fill="none" stroke="#666666" d="M657.58,-1783.4583C717.4458,-1766.6688 827.1764,-1735.8944 898.8407,-1715.796"/>
<polygon fill="#666666" stroke="#666666" points="899.5758,-1718.1344 905.6542,-1713.8851 898.2526,-1713.4164 899.5758,-1718.1344"/>
</g>
<!-- MRG -->
<g id="node21" class="node">
<title>MRG</title>
<polygon fill="#eef3f8" stroke="#5b7da3" points="662.2343,-1605.6 567.7657,-1605.6 567.7657,-1569.6 662.2343,-1569.6 662.2343,-1605.6"/>
<text text-anchor="middle" x="615" y="-1584.6" font-family="Helvetica,sans-Serif" font-size="10.00" fill="#000000">merge_metadata()</text>
</g>
<!-- P1&#45;&gt;MRG -->
<g id="edge21" class="edge">
<title>P1&#45;&gt;MRG</title>
<path fill="none" stroke="#666666" d="M110.3497,-1681.2011C113.9399,-1680.2035 117.5192,-1679.2568 121,-1678.4 279.0322,-1639.501 469.2069,-1609.059 560.6598,-1595.4183"/>
<polygon fill="#666666" stroke="#666666" points="561.0402,-1597.8388 567.6041,-1594.3866 560.32,-1592.992 561.0402,-1597.8388"/>
</g>
<!-- P2&#45;&gt;MRG -->
<g id="edge22" class="edge">
<title>P2&#45;&gt;MRG</title>
<path fill="none" stroke="#666666" d="M231.8799,-1681.4715C235.637,-1680.4113 239.3751,-1679.3766 243,-1678.4 355.554,-1648.0756 488.4426,-1616.6941 561.0067,-1599.9298"/>
<polygon fill="#666666" stroke="#666666" points="561.5681,-1602.3148 567.838,-1598.3537 560.4664,-1597.5402 561.5681,-1602.3148"/>
</g>
<!-- P3&#45;&gt;MRG -->
<g id="edge23" class="edge">
<title>P3&#45;&gt;MRG</title>
<path fill="none" stroke="#666666" d="M360.7069,-1678.3118C416.05,-1658.5697 504.31,-1627.0855 560.9411,-1606.884"/>
<polygon fill="#666666" stroke="#666666" points="561.9163,-1609.1374 567.6862,-1604.4778 560.27,-1604.5222 561.9163,-1609.1374"/>
</g>
<!-- P4&#45;&gt;MRG -->
<g id="edge24" class="edge">
<title>P4&#45;&gt;MRG</title>
<path fill="none" stroke="#666666" d="M475.952,-1678.1893C504.9396,-1659.304 550.2732,-1629.7693 581.242,-1609.5932"/>
<polygon fill="#666666" stroke="#666666" points="582.7074,-1611.5626 587.2351,-1605.6887 580.0326,-1607.4571 582.7074,-1611.5626"/>
</g>
<!-- P5&#45;&gt;MRG -->
<g id="edge25" class="edge">
<title>P5&#45;&gt;MRG</title>
<path fill="none" stroke="#666666" d="M615,-1677.9436C615,-1660.0955 615,-1632.9041 615,-1613.0145"/>
<polygon fill="#666666" stroke="#666666" points="617.4501,-1612.7838 615,-1605.7839 612.5501,-1612.7839 617.4501,-1612.7838"/>
</g>
<!-- P6&#45;&gt;MRG -->
<g id="edge26" class="edge">
<title>P6&#45;&gt;MRG</title>
<path fill="none" stroke="#666666" d="M729.0693,-1678.1893C705.558,-1659.5176 668.9388,-1630.4361 643.5603,-1610.2814"/>
<polygon fill="#666666" stroke="#666666" points="645.0109,-1608.3049 638.0055,-1605.8701 641.9635,-1612.142 645.0109,-1608.3049"/>
</g>
<!-- P7&#45;&gt;MRG -->
<g id="edge27" class="edge">
<title>P7&#45;&gt;MRG</title>
<path fill="none" stroke="#666666" d="M805.9282,-1678.3118C765.6446,-1659.1727 702.133,-1628.9977 659.5494,-1608.7658"/>
<polygon fill="#666666" stroke="#666666" points="660.5369,-1606.5226 653.1628,-1605.7315 658.4341,-1610.9484 660.5369,-1606.5226"/>
</g>
<!-- P8&#45;&gt;MRG -->
<g id="edge28" class="edge">
<title>P8&#45;&gt;MRG</title>
<path fill="none" stroke="#666666" d="M909.313,-1678.3118C842.4461,-1657.7024 734.0611,-1624.2965 669.1463,-1604.2887"/>
<polygon fill="#666666" stroke="#666666" points="669.6388,-1601.8768 662.2277,-1602.1563 668.1955,-1606.5595 669.6388,-1601.8768"/>
</g>
<!-- WR -->
<g id="node22" class="node">
<title>WR</title>
<polygon fill="#eef3f8" stroke="#5b7da3" points="778.7502,-1506.6 579.2498,-1506.6 579.2498,-1470.6 778.7502,-1470.6 778.7502,-1506.6"/>
<text text-anchor="middle" x="679" y="-1485.6" font-family="Helvetica,sans-Serif" font-size="10.00" fill="#000000">write variables.csv / codes.csv / layout.csv</text>
</g>
<!-- MRG&#45;&gt;WR -->
<g id="edge29" class="edge">
<title>MRG&#45;&gt;WR</title>
<path fill="none" stroke="#666666" d="M626.7386,-1569.4419C637.0232,-1553.5328 652.0513,-1530.2863 663.3554,-1512.8003"/>
<polygon fill="#666666" stroke="#666666" points="665.593,-1513.8517 667.3358,-1506.643 661.478,-1511.1915 665.593,-1513.8517"/>
</g>
<!-- WR&#45;&gt;TB -->
<g id="edge46" class="edge">
<title>WR&#45;&gt;TB</title>
<path fill="none" stroke="#666666" d="M717.5926,-1470.5635C731.3599,-1464.1292 747.6227,-1456.5287 764.3382,-1448.7166"/>
<polygon fill="#666666" stroke="#666666" points="765.7097,-1450.78 771.014,-1445.5966 763.635,-1446.3409 765.7097,-1450.78"/>
</g>
<!-- FF -->
<g id="node24" class="node">
<title>FF</title>
<polygon fill="#eef3f8" stroke="#5b7da3" points="876.9061,-1307.6 811.0939,-1307.6 811.0939,-1271.6 876.9061,-1271.6 876.9061,-1307.6"/>
<text text-anchor="middle" x="844" y="-1286.6" font-family="Helvetica,sans-Serif" font-size="10.00" fill="#000000">find data file</text>
</g>
<!-- TB&#45;&gt;FF -->
<g id="edge31" class="edge">
<title>TB&#45;&gt;FF</title>
<path fill="none" stroke="#666666" d="M867.5013,-1380.9194C862.8826,-1362.9724 855.6516,-1334.8749 850.4299,-1314.5847"/>
<polygon fill="#666666" stroke="#666666" points="852.7916,-1313.9313 848.6743,-1307.7628 848.0463,-1315.1526 852.7916,-1313.9313"/>
<text text-anchor="middle" x="880.7561" y="-1341.3" font-family="Helvetica,sans-Serif" font-size="9.00" fill="#000000">no / refresh</text>
</g>
<!-- OD -->
<g id="node36" class="node">
<title>OD</title>
<polygon fill="#eef3f8" stroke="#5b7da3" points="976.8181,-171 847.1819,-171 847.1819,-135 976.8181,-135 976.8181,-171"/>
<text text-anchor="middle" x="912" y="-150" font-family="Helvetica,sans-Serif" font-size="10.00" fill="#000000">open read&#45;only connection</text>
</g>
<!-- TB&#45;&gt;OD -->
<g id="edge48" class="edge">
<title>TB&#45;&gt;OD</title>
<path fill="none" stroke="#666666" d="M904.6133,-1385.6615C921.2412,-1376.8188 938,-1363.1551 938,-1344 938,-1344 938,-1344 938,-202.5 938,-193.7029 934.7417,-184.931 930.532,-177.2688"/>
<polygon fill="#666666" stroke="#666666" points="932.5356,-175.8468 926.8228,-171.1174 928.3394,-178.3771 932.5356,-175.8468"/>
<text text-anchor="middle" x="969.0082" y="-754.1" font-family="Helvetica,sans-Serif" font-size="9.00" fill="#000000">yes, not refresh</text>
</g>
<!-- FWF -->
<g id="node25" class="node">
<title>FWF</title>
<polygon fill="#fce8b2" stroke="#5b7da3" points="828,-1208.6 740.95,-1176.6 828,-1144.6 915.05,-1176.6 828,-1208.6"/>
<text text-anchor="middle" x="828" y="-1179.6" font-family="Helvetica,sans-Serif" font-size="10.00" fill="#000000">layout.csv exists</text>
<text text-anchor="middle" x="828" y="-1167.6" font-family="Helvetica,sans-Serif" font-size="10.00" fill="#000000">and file not .csv?</text>
</g>
<!-- FF&#45;&gt;FWF -->
<g id="edge32" class="edge">
<title>FF&#45;&gt;FWF</title>
<path fill="none" stroke="#666666" d="M841.4293,-1271.4446C839.2422,-1255.9978 836.0299,-1233.3111 833.2954,-1213.9988"/>
<polygon fill="#666666" stroke="#666666" points="835.7196,-1213.6435 832.3124,-1207.0561 830.868,-1214.3305 835.7196,-1213.6435"/>
</g>
<!-- RFW -->
<g id="node26" class="node">
<title>RFW</title>
<polygon fill="#eef3f8" stroke="#5b7da3" points="819,-1071.8 765,-1071.8 765,-1035.8 819,-1035.8 819,-1071.8"/>
<text text-anchor="middle" x="792" y="-1050.8" font-family="Helvetica,sans-Serif" font-size="10.00" fill="#000000">read_fwf</text>
</g>
<!-- FWF&#45;&gt;RFW -->
<g id="edge33" class="edge">
<title>FWF&#45;&gt;RFW</title>
<path fill="none" stroke="#666666" d="M818.0333,-1148.2042C814.3836,-1137.4244 810.3368,-1124.9994 807.0123,-1113.6 803.7251,-1102.3285 800.4988,-1089.7376 797.8847,-1079.0272"/>
<polygon fill="#666666" stroke="#666666" points="800.2015,-1078.1832 796.1795,-1071.9521 795.4379,-1079.3313 800.2015,-1078.1832"/>
<text text-anchor="middle" x="827.9938" y="-1105.5" font-family="Helvetica,sans-Serif" font-size="9.00" fill="#000000">yes (FWF)</text>
</g>
<!-- RCS -->
<g id="node27" class="node">
<title>RCS</title>
<polygon fill="#eef3f8" stroke="#5b7da3" points="896,-1071.8 842,-1071.8 842,-1035.8 896,-1035.8 896,-1071.8"/>
<text text-anchor="middle" x="869" y="-1050.8" font-family="Helvetica,sans-Serif" font-size="10.00" fill="#000000">read_csv</text>
</g>
<!-- FWF&#45;&gt;RCS -->
<g id="edge34" class="edge">
<title>FWF&#45;&gt;RCS</title>
<path fill="none" stroke="#666666" d="M838.1375,-1148.1193C841.9274,-1137.3297 846.2259,-1124.9202 850,-1113.6 853.8154,-1102.1557 857.8853,-1089.4223 861.2756,-1078.6566"/>
<polygon fill="#666666" stroke="#666666" points="863.6377,-1079.3119 863.3958,-1071.8995 858.9624,-1077.8449 863.6377,-1079.3119"/>
<text text-anchor="middle" x="871.5004" y="-1105.5" font-family="Helvetica,sans-Serif" font-size="9.00" fill="#000000">no (CSV)</text>
</g>
<!-- JNK -->
<g id="node28" class="node">
<title>JNK</title>
<polygon fill="#eef3f8" stroke="#5b7da3" points="852.7292,-972.8 743.2708,-972.8 743.2708,-936.8 852.7292,-936.8 852.7292,-972.8"/>
<text text-anchor="middle" x="798" y="-951.8" font-family="Helvetica,sans-Serif" font-size="10.00" fill="#000000">drop trailing junk rows</text>
</g>
<!-- RFW&#45;&gt;JNK -->
<g id="edge35" class="edge">
<title>RFW&#45;&gt;JNK</title>
<path fill="none" stroke="#666666" d="M793.1005,-1035.6419C794.0478,-1020.0119 795.4243,-997.2997 796.4772,-979.9259"/>
<polygon fill="#666666" stroke="#666666" points="798.9284,-979.9784 796.9065,-972.843 794.0374,-979.6819 798.9284,-979.9784"/>
</g>
<!-- RCS&#45;&gt;JNK -->
<g id="edge36" class="edge">
<title>RCS&#45;&gt;JNK</title>
<path fill="none" stroke="#666666" d="M855.9775,-1035.6419C844.4679,-1019.5933 827.6033,-996.0779 815.0267,-978.5415"/>
<polygon fill="#666666" stroke="#666666" points="817.0104,-977.1035 810.9399,-972.843 813.0286,-979.9592 817.0104,-977.1035"/>
</g>
<!-- FX -->
<g id="node29" class="node">
<title>FX</title>
<polygon fill="#eef3f8" stroke="#5b7da3" points="888.418,-873.8 707.582,-873.8 707.582,-837.8 888.418,-837.8 888.418,-873.8"/>
<text text-anchor="middle" x="798" y="-858.8" font-family="Helvetica,sans-Serif" font-size="10.00" fill="#000000">apply data fixups</text>
<text text-anchor="middle" x="798" y="-846.8" font-family="Helvetica,sans-Serif" font-size="10.00" fill="#000000">(str_pad, rename, cols_swap, force_*)</text>
</g>
<!-- JNK&#45;&gt;FX -->
<g id="edge37" class="edge">
<title>JNK&#45;&gt;FX</title>
<path fill="none" stroke="#666666" d="M798,-936.6419C798,-921.0119 798,-898.2997 798,-880.9259"/>
<polygon fill="#666666" stroke="#666666" points="800.4501,-880.843 798,-873.843 795.5501,-880.843 800.4501,-880.843"/>
</g>
<!-- BSW -->
<g id="node30" class="node">
<title>BSW</title>
<polygon fill="#fce8b2" stroke="#5b7da3" points="798,-774.8 701.6125,-756.8 798,-738.8 894.3875,-756.8 798,-774.8"/>
<text text-anchor="middle" x="798" y="-753.8" font-family="Helvetica,sans-Serif" font-size="10.00" fill="#000000">BSW mask in registry?</text>
</g>
<!-- FX&#45;&gt;BSW -->
<g id="edge38" class="edge">
<title>FX&#45;&gt;BSW</title>
<path fill="none" stroke="#666666" d="M798,-837.6419C798,-822.0119 798,-799.2997 798,-781.9259"/>
<polygon fill="#666666" stroke="#666666" points="800.4501,-781.843 798,-774.843 795.5501,-781.843 800.4501,-781.843"/>
</g>
<!-- RBW -->
<g id="node31" class="node">
<title>RBW</title>
<polygon fill="#eef3f8" stroke="#5b7da3" points="821.1904,-666 712.8096,-666 712.8096,-630 821.1904,-630 821.1904,-666"/>
<text text-anchor="middle" x="767" y="-645" font-family="Helvetica,sans-Serif" font-size="10.00" fill="#000000">join bootstrap weights</text>
</g>
<!-- BSW&#45;&gt;RBW -->
<g id="edge39" class="edge">
<title>BSW&#45;&gt;RBW</title>
<path fill="none" stroke="#666666" d="M793.0193,-739.3194C787.9057,-721.3724 779.9,-693.2749 774.1188,-672.9847"/>
<polygon fill="#666666" stroke="#666666" points="776.4495,-672.2235 772.1751,-666.1628 771.7371,-673.5663 776.4495,-672.2235"/>
<text text-anchor="middle" x="790.0015" y="-699.7" font-family="Helvetica,sans-Serif" font-size="9.00" fill="#000000">yes</text>
</g>
<!-- NC -->
<g id="node32" class="node">
<title>NC</title>
<polygon fill="#eef3f8" stroke="#5b7da3" points="914.3571,-567 771.6429,-567 771.6429,-531 914.3571,-531 914.3571,-567"/>
<text text-anchor="middle" x="843" y="-552" font-family="Helvetica,sans-Serif" font-size="10.00" fill="#000000">numeric conversion</text>
<text text-anchor="middle" x="843" y="-540" font-family="Helvetica,sans-Serif" font-size="10.00" fill="#000000">(missing ranges + na_values)</text>
</g>
<!-- BSW&#45;&gt;NC -->
<g id="edge40" class="edge">
<title>BSW&#45;&gt;NC</title>
<path fill="none" stroke="#666666" d="M830.3225,-744.5952C847.4556,-735.8131 865,-722.0281 865,-702.4 865,-702.4 865,-702.4 865,-598.5 865,-590.1478 862.3522,-581.6331 858.8937,-574.074"/>
<polygon fill="#666666" stroke="#666666" points="860.8832,-572.5782 855.5423,-567.4326 856.5086,-574.7857 860.8832,-572.5782"/>
<text text-anchor="middle" x="870.0031" y="-645.3" font-family="Helvetica,sans-Serif" font-size="9.00" fill="#000000">no</text>
</g>
<!-- RBW&#45;&gt;NC -->
<g id="edge41" class="edge">
<title>RBW&#45;&gt;NC</title>
<path fill="none" stroke="#666666" d="M780.9396,-629.8419C793.2597,-613.7933 811.3119,-590.2779 824.7742,-572.7415"/>
<polygon fill="#666666" stroke="#666666" points="826.8296,-574.0875 829.1488,-567.043 822.9428,-571.1037 826.8296,-574.0875"/>
</g>
<!-- CL -->
<g id="node33" class="node">
<title>CL</title>
<polygon fill="#eef3f8" stroke="#5b7da3" points="896.4731,-468 789.5269,-468 789.5269,-432 896.4731,-432 896.4731,-468"/>
<text text-anchor="middle" x="843" y="-447" font-family="Helvetica,sans-Serif" font-size="10.00" fill="#000000">code labels to factors</text>
</g>
<!-- NC&#45;&gt;CL -->
<g id="edge42" class="edge">
<title>NC&#45;&gt;CL</title>
<path fill="none" stroke="#666666" d="M843,-530.8419C843,-515.2119 843,-492.4997 843,-475.1259"/>
<polygon fill="#666666" stroke="#666666" points="845.4501,-475.043 843,-468.043 840.5501,-475.043 845.4501,-475.043"/>
</g>
<!-- WD -->
<g id="node34" class="node">
<title>WD</title>
<polygon fill="#eef3f8" stroke="#5b7da3" points="891.504,-369 794.496,-369 794.496,-333 891.504,-333 891.504,-369"/>
<text text-anchor="middle" x="843" y="-348" font-family="Helvetica,sans-Serif" font-size="10.00" fill="#000000">write DuckDB table</text>
</g>
<!-- CL&#45;&gt;WD -->
<g id="edge43" class="edge">
<title>CL&#45;&gt;WD</title>
<path fill="none" stroke="#666666" d="M843,-431.8419C843,-416.2119 843,-393.4997 843,-376.1259"/>
<polygon fill="#666666" stroke="#666666" points="845.4501,-376.043 843,-369.043 840.5501,-376.043 845.4501,-376.043"/>
</g>
<!-- EN -->
<g id="node35" class="node">
<title>EN</title>
<polygon fill="#eef3f8" stroke="#5b7da3" points="915.2462,-270 770.7538,-270 770.7538,-234 915.2462,-234 915.2462,-270"/>
<text text-anchor="middle" x="843" y="-249" font-family="Helvetica,sans-Serif" font-size="10.00" fill="#000000">enforce ENUM / force_* types</text>
</g>
<!-- WD&#45;&gt;EN -->
<g id="edge44" class="edge">
<title>WD&#45;&gt;EN</title>
<path fill="none" stroke="#666666" d="M843,-332.8419C843,-317.2119 843,-294.4997 843,-277.1259"/>
<polygon fill="#666666" stroke="#666666" points="845.4501,-277.043 843,-270.043 840.5501,-277.043 845.4501,-277.043"/>
</g>
<!-- EN&#45;&gt;OD -->
<g id="edge45" class="edge">
<title>EN&#45;&gt;OD</title>
<path fill="none" stroke="#666666" d="M855.6557,-233.8419C866.7438,-217.9328 882.9459,-194.6863 895.1331,-177.2003"/>
<polygon fill="#666666" stroke="#666666" points="897.432,-178.1867 899.4246,-171.043 893.412,-175.3849 897.432,-178.1867"/>
</g>
<!-- REG -->
<g id="node37" class="node">
<title>REG</title>
<path fill="#d9ead3" stroke="#5b7da3" d="M999.1942,-103C999.1942,-103 824.8058,-103 824.8058,-103 818.8058,-103 812.8058,-97 812.8058,-91 812.8058,-91 812.8058,-79 812.8058,-79 812.8058,-73 818.8058,-67 824.8058,-67 824.8058,-67 999.1942,-67 999.1942,-67 1005.1942,-67 1011.1942,-73 1011.1942,-79 1011.1942,-79 1011.1942,-91 1011.1942,-91 1011.1942,-97 1005.1942,-103 999.1942,-103"/>
<text text-anchor="middle" x="912" y="-82" font-family="Helvetica,sans-Serif" font-size="10.00" fill="#000000">register provenance (series, version, lang)</text>
</g>
<!-- OD&#45;&gt;REG -->
<g id="edge49" class="edge">
<title>OD&#45;&gt;REG</title>
<path fill="none" stroke="#666666" d="M912,-134.7772C912,-127.3074 912,-118.5321 912,-110.447"/>
<polygon fill="#666666" stroke="#666666" points="914.4501,-110.273 912,-103.2731 909.5501,-110.2731 914.4501,-110.273"/>
</g>
<!-- TBL -->
<g id="node38" class="node">
<title>TBL</title>
<path fill="#d9ead3" stroke="#5b7da3" d="M952.8891,-36C952.8891,-36 871.1109,-36 871.1109,-36 865.1109,-36 859.1109,-30 859.1109,-24 859.1109,-24 859.1109,-12 859.1109,-12 859.1109,-6 865.1109,0 871.1109,0 871.1109,0 952.8891,0 952.8891,0 958.8891,0 964.8891,-6 964.8891,-12 964.8891,-12 964.8891,-24 964.8891,-24 964.8891,-30 958.8891,-36 952.8891,-36"/>
<text text-anchor="middle" x="912" y="-15" font-family="Helvetica,sans-Serif" font-size="10.00" fill="#000000">return lazy dplyr::tbl()</text>
</g>
<!-- REG&#45;&gt;TBL -->
<g id="edge50" class="edge">
<title>REG&#45;&gt;TBL</title>
<path fill="none" stroke="#666666" d="M912,-66.692C912,-59.6016 912,-51.3593 912,-43.6944"/>
<polygon fill="#666666" stroke="#666666" points="914.4501,-43.2859 912,-36.2859 909.5501,-43.2859 914.4501,-43.2859"/>
</g>
</g>
</svg>

